<svg width="378" height="372" viewBox="0 0 378 372" xmlns="http://www.w3.org/2000/svg"><g fill="#FB85ED" fill-rule="evenodd"><path d="M49.157 24.446h13.856l-6.816-7.167h-.222l-6.818 7.167zM82.743 7l29.373 29.32h-37.41l-4.875-4.956H42.342l-4.877 4.956H0L29.374 7h53.37zM146.972 20.313c0 .923.792 1.666 2.382 2.229 1.625.564 3.62.845 5.985.845 2.364 0 4.358-.281 5.985-.845 1.625-.589 2.44-1.331 2.44-2.229 0-.448-.214-.861-.638-1.238-.426-.38-1.006-.703-1.745-.972-.74-.268-1.637-.48-2.69-.633a23.593 23.593 0 0 0-3.408-.23c-2.364 0-4.342.288-5.929.863-1.59.565-2.382 1.3-2.382 2.21M155.339 6c7.98 0 15.314.678 22.003 2.035 6.685 1.359 11.914 3.19 15.683 5.496 3.804 2.293 5.707 4.815 5.707 7.57 0 2.741-1.903 5.278-5.707 7.608-3.77 2.332-8.998 4.176-15.683 5.534-6.725 1.345-14.06 2.018-22.003 2.018-7.946 0-15.26-.673-21.947-2.018-6.614-1.332-11.841-3.17-15.683-5.514-3.806-2.332-5.709-4.874-5.709-7.627 0-2.69 1.866-5.202 5.597-7.533 3.733-2.306 8.959-4.143 15.685-5.514C140.006 6.685 147.358 6 155.34 6M262.7 0L276 5.149h-17.18l-9.975-2.325-8.592 2.325h-16.125L237.316 0H262.7zm29.426 6.935v13.566c0 1.729-.404 3.31-1.216 4.746-.813 1.434-2.044 2.73-3.687 3.89-1.645 1.16-3.713 2.197-6.207 3.113-2.495.915-5.441 1.72-8.841 2.41-6.759 1.384-14.15 2.076-22.168 2.076-7.5 0-14.65-.64-21.447-1.921-6.761-1.281-11.898-3.048-15.407-5.303-3.436-2.242-5.153-5.425-5.153-9.55V6.936h37.465V20.75c0 1.179.31 2 .942 2.46.663.436 1.826.653 3.49.653.997 0 1.802-.077 2.411-.23.609-.154 1.09-.397 1.44-.73.352-.334.592-.763.722-1.288.127-.525.192-1.16.192-1.903V6.935h37.464zM154.276 125.446a112 112 0 0 1-2.017 21.274c-1.344 6.958-3.363 13.88-6.047 20.755-2.69 6.878-6.072 13.816-10.147 20.821-4.078 7.005-8.845 14.161-14.31 21.464h37.725v35.067H0c25.928-31.972 43.143-54.706 51.64-68.197 8.502-13.583 12.752-24.627 12.752-33.135 0-5.755-1.908-10.528-5.723-14.308-3.818-3.872-8.457-5.804-13.921-5.804-7.2 0-14.175 2.964-20.941 8.898-3.385 2.92-6.96 6.572-10.735 10.956-3.77 4.383-7.784 9.54-12.03 15.47l1.56-89.211c2.253-1.632 4.835-3.353 7.74-5.158 2.903-1.804 6.22-3.78 9.95-5.93 7.546-4.297 15.35-7.605 23.415-9.929C51.857 46.163 61.05 45 71.285 45c15.522 0 29.741 3.225 42.666 9.668 13.007 6.533 22.938 15.814 29.786 27.846 7.03 12.122 10.54 26.43 10.54 42.932M369.35 174.21c0 14.356-3.686 27.12-11.06 38.291-7.367 11.346-17.426 20.068-30.177 26.169-12.922 6.189-27.579 9.282-43.964 9.282-21.421 0-40.762-4.553-58.021-13.66-17.255-9.113-27.964-21.66-32.128-37.646l1.56-1.81c7.458 4.904 14.766 8.514 21.92 10.83 7.156 2.325 14.848 3.483 23.089 3.483 11.792 0 21.462-2.578 29.01-7.735 7.542-5.157 11.315-11.861 11.315-20.112 0-8.25-3.599-14.483-10.794-18.69-7.2-4.213-17.824-6.32-31.873-6.32-4.597 0-8.845.302-12.747.9-3.903.604-7.436 1.377-10.602 2.325-3.167.944-5.984 1.995-8.454 3.157-2.474 1.158-4.487 2.301-6.047 3.416l-2.082-1.678L227.562 48h150.244v35.197H307.69l-6.892 26.553c22.11 1.377 39.064 7.866 50.86 19.47 11.792 11.43 17.69 26.426 17.69 44.99M154.276 287.224c0 2.802-.673 5.553-2.017 8.257-1.344 2.7-3.363 5.387-6.047 8.055-2.69 2.67-6.072 5.363-10.147 8.082-4.078 2.719-8.845 5.496-14.31 8.33h37.725v13.612H0c25.928-12.41 43.143-21.234 51.64-26.47 8.502-5.272 12.752-9.559 12.752-12.861 0-2.233-1.908-4.086-5.723-5.553-3.818-1.503-8.457-2.252-13.921-2.252-7.2 0-14.175 1.15-20.941 3.453-3.385 1.133-6.96 2.551-10.735 4.252-3.77 1.702-7.784 3.703-12.03 6.005l1.56-34.627a217.037 217.037 0 0 1 7.74-2.002 636.5 636.5 0 0 1 9.95-2.302c7.546-1.667 15.35-2.95 23.415-3.853 8.15-.9 17.343-1.35 27.578-1.35 15.522 0 29.741 1.251 42.666 3.751 13.007 2.537 22.938 6.14 29.786 10.809 7.03 4.706 10.54 10.259 10.54 16.664M369.35 305.987c0 5.572-3.686 10.527-11.06 14.862-7.367 4.404-17.426 7.79-30.177 10.157-12.922 2.403-27.579 3.603-43.964 3.603-21.421 0-40.762-1.767-58.021-5.302-17.255-3.537-27.964-8.407-32.128-14.612l1.56-.702c7.458 1.903 14.766 3.304 21.92 4.204 7.156.902 14.848 1.351 23.089 1.351 11.792 0 21.462-1.001 29.01-3.002 7.542-2 11.315-4.604 11.315-7.805 0-3.204-3.599-5.623-10.794-7.255-7.2-1.636-17.824-2.453-31.873-2.453-4.597 0-8.845.117-12.747.35-3.903.233-7.436.534-10.602.901-3.167.366-5.984.774-8.454 1.226-2.474.45-4.487.893-6.047 1.326l-2.082-.652L227.562 257h150.244v13.662H307.69l-6.892 10.306c22.11.534 39.064 3.053 50.86 7.557 11.792 4.437 17.69 10.257 17.69 17.462M154.276 357.02c0 .9-.673 1.784-2.017 2.651-1.344.867-3.363 1.73-6.047 2.585-2.69.858-6.072 1.722-10.147 2.594-4.078.873-8.845 1.765-14.31 2.674h37.725v4.368H0c25.928-3.982 43.143-6.814 51.64-8.495 8.502-1.691 12.752-3.067 12.752-4.127 0-.717-1.908-1.312-5.723-1.783-3.818-.483-8.457-.723-13.921-.723-7.2 0-14.175.37-20.941 1.11-3.385.362-6.96.818-10.735 1.364-3.77.545-7.784 1.189-12.03 1.927l1.56-11.113a611.35 611.35 0 0 1 7.74-.643c2.903-.225 6.22-.471 9.95-.739 7.546-.535 15.35-.946 23.415-1.237 8.15-.288 17.343-.433 27.578-.433 15.522 0 29.741.403 42.666 1.205 13.007.813 22.938 1.97 29.786 3.468 7.03 1.51 10.54 3.293 10.54 5.348M369.35 362.723c0 1.789-3.686 3.378-11.06 4.77-7.367 1.413-17.426 2.5-30.177 3.26-12.922.77-27.579 1.156-43.964 1.156-21.421 0-40.762-.567-58.021-1.702-17.255-1.135-27.964-2.698-32.128-4.689l1.56-.226a528.987 528.987 0 0 0 21.92 1.35c7.156.29 14.848.433 23.089.433 11.792 0 21.462-.321 29.01-.963 7.542-.642 11.315-1.477 11.315-2.506 0-1.027-3.599-1.803-10.794-2.328-7.2-.525-17.824-.787-31.873-.787-4.597 0-8.845.036-12.747.112-3.903.075-7.436.171-10.602.29-3.167.116-5.984.248-8.454.393a207.87 207.87 0 0 0-6.047.425l-2.082-.21L227.562 347h150.244v4.385H307.69l-6.892 3.308c22.11.171 39.064.98 50.86 2.425 11.792 1.425 17.69 3.291 17.69 5.605M374.15 7v12.99h-18.842v16.33h-37.465V19.99H299V7z"/></g></svg>